<?xml version="1.0" standalone="no"?>
<!DOCTYPE svg PUBLIC "-//W3C//DTD SVG 20010904//EN"
 "http://www.w3.org/TR/2001/REC-SVG-20010904/DTD/svg10.dtd">
<svg version="1.0" xmlns="http://www.w3.org/2000/svg"
 width="200.000000pt" height="200.000000pt" viewBox="0 0 200.000000 200.000000"
 preserveAspectRatio="xMidYMid meet">
<metadata>
Created by potrace 1.14, written by Peter Selinger 2001-2017
</metadata>
<g transform="translate(0.000000,200.000000) scale(0.100000,-0.100000)"
fill="#000000" stroke="none">
<path d="M1176 1714 c-20 -25 -43 -64 -53 -85 -16 -38 -19 -39 -66 -39 -46 0
-121 -25 -115 -39 41 -80 42 -82 31 -110 -8 -24 -7 -30 9 -40 18 -11 48 -68
65 -126 8 -29 10 -30 70 -28 178 6 276 137 206 275 -19 39 -55 60 -106 61 -38
2 -43 4 -39 22 3 11 20 40 39 65 35 46 40 83 11 88 -10 2 -30 -15 -52 -44z"/>
<path d="M857 1458 c-14 -18 -32 -46 -41 -62 -12 -24 -22 -29 -53 -30 -74 -3
-121 -62 -108 -137 11 -63 67 -101 149 -102 124 -2 201 97 151 193 -15 29 -52
47 -87 41 -24 -3 -23 10 6 52 14 20 26 44 28 53 5 30 -20 26 -45 -8z"/>
<path d="M1420 1414 c0 -38 -41 -123 -71 -150 -57 -52 -126 -77 -225 -82 -90
-5 -96 -6 -115 -33 -70 -99 -264 -119 -362 -38 -19 15 -42 44 -51 64 -18 37
-30 43 -43 21 -7 -12 -119 -139 -168 -190 -11 -12 -53 -58 -92 -103 l-73 -81
0 -292 0 -292 23 5 c12 3 51 14 87 25 699 214 906 277 960 293 36 10 160 47
275 83 l210 64 3 295 2 295 -167 67 c-93 37 -174 69 -180 72 -9 3 -13 -5 -13
-23z m260 -288 c0 -97 -116 -228 -249 -280 -78 -30 -147 -31 -259 -2 -117 30
-155 32 -237 11 -114 -30 -210 -88 -335 -204 -30 -27 -67 -54 -81 -59 -37 -14
-114 -6 -156 15 -37 18 -37 18 -38 84 l0 67 215 65 c118 36 388 118 600 182
212 64 412 125 445 135 87 27 95 26 95 -14z m-3 -276 l0 -90 -71 -21 c-84 -25
-571 -172 -741 -224 -425 -130 -534 -161 -537 -151 -2 6 -3 49 -3 96 1 79 2
85 21 81 10 -1 53 -4 94 -5 97 -1 153 25 270 128 173 153 266 176 475 118 89
-24 180 -22 260 9 65 24 156 81 194 123 14 14 28 26 32 26 3 0 6 -41 6 -90z"/>
</g>
</svg>
